ffmpeg version 3.4.8-0ubuntu0.2 Copyright (c) 2000-2020 the FFmpeg developers
  built with gcc 7 (Ubuntu 7.5.0-3ubuntu1~18.04)
  configuration: --prefix=/usr --extra-version=0ubuntu0.2 --toolchain=hardened --libdir=/usr/lib/x86_64-linux-gnu --incdir=/usr/include/x86_64-linux-gnu --enable-gpl --disable-stripping --enable-avresample --enable-avisynth --enable-gnutls --enable-ladspa --enable-libass --enable-libbluray --enable-libbs2b --enable-libcaca --enable-libcdio --enable-libflite --enable-libfontconfig --enable-libfreetype --enable-libfribidi --enable-libgme --enable-libgsm --enable-libmp3lame --enable-libmysofa --enable-libopenjpeg --enable-libopenmpt --enable-libopus --enable-libpulse --enable-librubberband --enable-librsvg --enable-libshine --enable-libsnappy --enable-libsoxr --enable-libspeex --enable-libssh --enable-libtheora --enable-libtwolame --enable-libvorbis --enable-libvpx --enable-libwavpack --enable-libwebp --enable-libx265 --enable-libxml2 --enable-libxvid --enable-libzmq --enable-libzvbi --enable-omx --enable-openal --enable-opengl --enable-sdl2 --enable-libdc1394 --enable-libdrm --enable-libiec61883 --enable-chromaprint --enable-frei0r --enable-libopencv --enable-libx264 --enable-shared
  libavutil      55. 78.100 / 55. 78.100
  libavcodec     57.107.100 / 57.107.100
  libavformat    57. 83.100 / 57. 83.100
  libavdevice    57. 10.100 / 57. 10.100
  libavfilter     6.107.100 /  6.107.100
  libavresample   3.  7.  0 /  3.  7.  0
  libswscale      4.  8.100 /  4.  8.100
  libswresample   2.  9.100 /  2.  9.100
  libpostproc    54.  7.100 / 54.  7.100
[rawvideo @ 0x55d947d8ca20] Estimating duration from bitrate, this may be inaccurate
Input #0, rawvideo, from '../../SVC-Encoder-20220109T061506Z-001/SVC-Encoder/Dataset/RollerCoaster/6f_2x2/tile_yuv/f3_t3_480x480.yuv':
  Duration: 00:00:10.00, start: 0.000000, bitrate: 82944 kb/s
    Stream #0:0: Video: rawvideo (I420 / 0x30323449), yuv420p, 480x480, 82944 kb/s, 30 tbr, 30 tbn, 30 tbc
Stream mapping:
  Stream #0:0 -> #0:0 (rawvideo (native) -> h264 (libx264))
Press [q] to stop, [?] for help
[libx264 @ 0x55d947d99c60] using cpu capabilities: MMX2 SSE2Fast LZCNT SSSE3 SSE4.2 AVX
[libx264 @ 0x55d947d99c60] profile High, level 3.0
Output #0, rawvideo, to 'RollerCoaster_f3_t3_480x480_x264_QP_40.h264':
  Metadata:
    encoder         : Lavf57.83.100
    Stream #0:0: Video: h264 (libx264), yuv420p, 480x480, q=-1--1, 30 fps, 30 tbn, 30 tbc
    Metadata:
      encoder         : Lavc57.107.100 libx264
    Side data:
      cpb: bitrate max/min/avg: 0/0/0 buffer size: 0 vbv_delay: -1
frame=  148 fps=0.0 q=46.0 PSNR=Y:nan U:nan V:nan *:nan size=      25kB time=00:00:03.50 bitrate=  59.5kbits/s speed= 6.9x    frame=  287 fps=285 q=46.0 PSNR=Y:nan U:nan V:nan *:nan size=      52kB time=00:00:08.13 bitrate=  51.9kbits/s speed=8.07x    frame=  300 fps=255 q=46.0 LPSNR=Y:inf U:inf V:inf *:inf size=      66kB time=00:00:09.93 bitrate=  54.6kbits/s speed=8.46x    
video:66kB audio:0kB subtitle:0kB other streams:0kB global headers:0kB muxing overhead: 0.000000%
[libx264 @ 0x55d947d99c60] frame I:2     Avg QP:38.45  size:  5011  PSNR Mean Y:36.24 U:40.38 V:39.18 Avg:37.12 Global:37.07
[libx264 @ 0x55d947d99c60] frame P:76    Avg QP:40.26  size:   396  PSNR Mean Y:35.17 U:40.30 V:39.48 Avg:36.25 Global:36.24
[libx264 @ 0x55d947d99c60] frame B:222   Avg QP:45.47  size:   125  PSNR Mean Y:34.58 U:40.08 V:39.38 Avg:35.72 Global:35.71
[libx264 @ 0x55d947d99c60] consecutive B-frames:  1.3%  0.0%  0.0% 98.7%
[libx264 @ 0x55d947d99c60] mb I  I16..4: 20.0% 67.6% 12.4%
[libx264 @ 0x55d947d99c60] mb P  I16..4:  2.3%  1.3%  0.0%  P16..4: 17.7%  0.5%  0.1%  0.0%  0.0%    skip:78.1%
[libx264 @ 0x55d947d99c60] mb B  I16..4:  0.1%  0.0%  0.0%  B16..8:  9.5%  0.1%  0.0%  direct: 0.0%  skip:90.3%  L0:46.4% L1:53.5% BI: 0.1%
[libx264 @ 0x55d947d99c60] 8x8 transform intra:48.7% inter:97.2%
[libx264 @ 0x55d947d99c60] coded y,uvDC,uvAC intra: 12.4% 45.8% 7.3% inter: 0.3% 0.8% 0.0%
[libx264 @ 0x55d947d99c60] i16 v,h,dc,p: 30% 37% 15% 18%
[libx264 @ 0x55d947d99c60] i8 v,h,dc,ddl,ddr,vr,hd,vl,hu: 34% 13% 39%  3%  1%  1%  1%  1%  7%
[libx264 @ 0x55d947d99c60] i4 v,h,dc,ddl,ddr,vr,hd,vl,hu: 27% 27% 21%  6%  3%  2%  4%  2%  8%
[libx264 @ 0x55d947d99c60] i8c dc,h,v,p: 68% 18%  7%  7%
[libx264 @ 0x55d947d99c60] Weighted P-Frames: Y:0.0% UV:0.0%
[libx264 @ 0x55d947d99c60] ref P L0: 50.9% 14.4% 21.3% 13.4%
[libx264 @ 0x55d947d99c60] ref B L0: 60.3% 29.8%  9.9%
[libx264 @ 0x55d947d99c60] ref B L1: 73.5% 26.5%
[libx264 @ 0x55d947d99c60] PSNR Mean Y:34.744 U:40.138 V:39.403 Avg:35.866 Global:35.846 kb/s:54.24
